# xmcd CD database file
#
# Track frame offsets:
#	187
#	18887
#	36542
#	55025
#
# Disc length: 919 seconds
#
# Revision: 0
# Processed by: cddbd v1.5PL3 Copyright (c) Steve Scherf et al.
# Submitted via: CDex 1.40Release
#
DISCID=2a039504
DTITLE=the pillows - ONE LIFE
DYEAR=1997
DGENRE=Rock
TTITLE0=ONE LIFE
TTITLE1=cherry
TTITLE2=STALKER GOSE TO BABYLON
TTITLE3=like a lovesong (back to back)
EXTD=YEAR: 1997 ID3G: 17
EXTT0=
EXTT1=
EXTT2=
EXTT3=
PLAYORDER=
